<svg width="14" height="8" viewBox="0 0 14 8" fill="none" xmlns="http://www.w3.org/2000/svg">
<path d="M7.07108 5.314L12.0211 0.364C12.1133 0.26849 12.2237 0.192308 12.3457 0.139899C12.4677 0.0874898 12.5989 0.0599036 12.7317 0.0587498C12.8645 0.0575959 12.9961 0.0828977 13.119 0.133179C13.2419 0.183459 13.3536 0.257713 13.4475 0.351605C13.5414 0.445498 13.6156 0.55715 13.6659 0.680046C13.7162 0.802943 13.7415 0.934622 13.7403 1.0674C13.7392 1.20018 13.7116 1.3314 13.6592 1.4534C13.6068 1.57541 13.5306 1.68575 13.4351 1.778L7.77808 7.435C7.59055 7.62247 7.33625 7.72779 7.07108 7.72779C6.80592 7.72779 6.55161 7.62247 6.36408 7.435L0.707083 1.778C0.611572 1.68575 0.53539 1.57541 0.482981 1.4534C0.430572 1.3314 0.402986 1.20018 0.401832 1.0674C0.400678 0.934622 0.42598 0.802943 0.476261 0.680046C0.526542 0.55715 0.600795 0.445498 0.694688 0.351605C0.78858 0.257713 0.900232 0.183459 1.02313 0.133179C1.14602 0.0828977 1.2777 0.0575959 1.41048 0.0587498C1.54326 0.0599036 1.67448 0.0874898 1.79649 0.139899C1.91849 0.192308 2.02884 0.26849 2.12108 0.364L7.07108 5.314Z" fill="#0F172A"/>
</svg>
